<svg width="24" height="24" viewBox="0 0 24 24" fill="none" xmlns="http://www.w3.org/2000/svg">
<path d="M2.00002 12H4.00002C3.99841 10.9488 4.20397 9.90763 4.60497 8.93593C5.00597 7.96424 5.59453 7.0811 6.33702 6.337C7.06466 5.60659 7.92822 5.02567 8.87902 4.627C10.8385 3.81293 13.0388 3.79822 15.009 4.586C15.0288 5.2333 15.3 5.84744 15.765 6.29812C16.2301 6.7488 16.8524 7.00056 17.5 7C18.886 7 20 5.886 20 4.5C20 3.114 18.886 2 17.5 2C16.811 2 16.188 2.276 15.737 2.725C13.306 1.752 10.514 1.767 8.10202 2.784C6.91282 3.28306 5.83258 4.00968 4.92202 4.923C4.00845 5.83317 3.2815 6.91307 2.78202 8.102C2.26309 9.3359 1.99717 10.6614 2.00002 12ZM19.373 15.122C18.972 16.074 18.396 16.93 17.663 17.663C16.93 18.396 16.074 18.972 15.121 19.373C13.1615 20.1871 10.9612 20.2018 8.99102 19.414C8.97126 18.7667 8.70008 18.1526 8.23503 17.7019C7.76997 17.2512 7.14763 16.9994 6.50002 17C5.11402 17 4.00002 18.114 4.00002 19.5C4.00002 20.886 5.11402 22 6.50002 22C7.18902 22 7.81202 21.724 8.26302 21.275C9.45078 21.7537 10.7194 21.9998 12 22C13.9666 22.0042 15.8907 21.4272 17.5305 20.3416C19.1703 19.256 20.4528 17.7101 21.217 15.898C21.7363 14.6642 22.0026 13.3386 22 12H20C20.0023 13.0722 19.7891 14.1339 19.373 15.122Z" fill="#8E7F78"/>
<path d="M11.9999 7.46191C9.49791 7.46191 7.46191 9.49791 7.46191 11.9999C7.46191 14.5019 9.49791 16.5379 11.9999 16.5379C14.5019 16.5379 16.5379 14.5019 16.5379 11.9999C16.5379 9.49791 14.5019 7.46191 11.9999 7.46191ZM11.9999 14.5379C10.6009 14.5379 9.46191 13.3989 9.46191 11.9999C9.46191 10.6009 10.6009 9.46191 11.9999 9.46191C13.3989 9.46191 14.5379 10.6009 14.5379 11.9999C14.5379 13.3989 13.3989 14.5379 11.9999 14.5379Z" fill="#8E7F78"/>
</svg>
