<svg width="16" height="16" viewBox="0 0 16 16" fill="none" xmlns="http://www.w3.org/2000/svg">
<g clip-path="url(#clip0_21_608)">
<path d="M2 9.9502C2.5799 9.9502 3.0498 10.4201 3.0498 11C3.0498 11.5799 2.5799 12.0498 2 12.0498C1.4201 12.0498 0.950195 11.5799 0.950195 11C0.950195 10.4201 1.4201 9.9502 2 9.9502Z" fill="#4E657F" stroke="#4E657F" stroke-width="0.1"/>
<path d="M10.4961 10.4211L11.4951 10.4788L11.5449 10.4817L11.542 10.5315C11.3955 13.0649 9.28984 15.0499 6.75 15.05C5.98643 15.0488 5.23369 14.8661 4.55469 14.5168C3.8756 14.1675 3.28874 13.6609 2.84375 13.0403L2.81543 13.0002L2.85547 12.9709L3.66895 12.3889L3.70898 12.3596L3.73828 12.4006C4.0811 12.8792 4.53324 13.2689 5.05664 13.5383C5.58029 13.8078 6.16108 13.9487 6.75 13.9495C8.70796 13.9493 10.3304 12.4204 10.4434 10.468L10.4463 10.4182L10.4961 10.4211Z" fill="#4E657F" stroke="#4E657F" stroke-width="0.1"/>
<path d="M14 10.4502C14.5799 10.4502 15.0498 10.9201 15.0498 11.5C15.0498 12.0799 14.5799 12.5498 14 12.5498C13.4201 12.5498 12.9502 12.0799 12.9502 11.5C12.9502 10.9201 13.4201 10.4502 14 10.4502Z" fill="#4E657F" stroke="#4E657F" stroke-width="0.1"/>
<mask id="path-4-outside-1_21_608" maskUnits="userSpaceOnUse" x="4.5" y="2.5" width="12" height="9" fill="black">
<rect fill="white" x="4.5" y="2.5" width="12" height="9"/>
<path d="M15.3205 9.54752L14.3585 9.27502C14.4528 8.94153 14.5004 8.59658 14.5 8.25002C14.5 6.18252 12.818 4.50002 10.75 4.50002C10.2175 4.49812 9.69081 4.61119 9.206 4.83152L8.794 3.92052C9.40826 3.6416 10.0754 3.49818 10.75 3.50002C13.369 3.50002 15.5 5.63102 15.5 8.25002C15.5 8.69002 15.44 9.12702 15.3205 9.54752ZM10.207 7.29252L8.707 5.79252C8.5185 5.60452 8.267 5.50002 8 5.50002C7.733 5.50002 7.4815 5.60402 7.293 5.79302L5.793 7.29302C5.598 7.48802 5.5 7.74402 5.5 8.00002C5.5 8.25602 5.598 8.51202 5.793 8.70702L7.293 10.207C7.4815 10.396 7.733 10.5 8 10.5C8.267 10.5 8.5185 10.396 8.707 10.207L10.207 8.70702C10.402 8.51202 10.5 8.25602 10.5 8.00002C10.5 7.74402 10.402 7.48802 10.207 7.29302M8 9.50002L6.5 8.00002L8 6.50002L9.5 8.00002L8 9.50002Z"/>
</mask>
<path d="M15.3205 9.54752L14.3585 9.27502C14.4528 8.94153 14.5004 8.59658 14.5 8.25002C14.5 6.18252 12.818 4.50002 10.75 4.50002C10.2175 4.49812 9.69081 4.61119 9.206 4.83152L8.794 3.92052C9.40826 3.6416 10.0754 3.49818 10.75 3.50002C13.369 3.50002 15.5 5.63102 15.5 8.25002C15.5 8.69002 15.44 9.12702 15.3205 9.54752ZM10.207 7.29252L8.707 5.79252C8.5185 5.60452 8.267 5.50002 8 5.50002C7.733 5.50002 7.4815 5.60402 7.293 5.79302L5.793 7.29302C5.598 7.48802 5.5 7.74402 5.5 8.00002C5.5 8.25602 5.598 8.51202 5.793 8.70702L7.293 10.207C7.4815 10.396 7.733 10.5 8 10.5C8.267 10.5 8.5185 10.396 8.707 10.207L10.207 8.70702C10.402 8.51202 10.5 8.25602 10.5 8.00002C10.5 7.74402 10.402 7.48802 10.207 7.29302M8 9.50002L6.5 8.00002L8 6.50002L9.5 8.00002L8 9.50002Z" fill="#4E657F"/>
<path d="M15.3205 9.54752L15.2932 9.64373L15.3894 9.67096L15.4167 9.57485L15.3205 9.54752ZM14.3585 9.27502L14.2623 9.24781L14.2351 9.34399L14.3312 9.37123L14.3585 9.27502ZM14.5 8.25002H14.4V8.25014L14.5 8.25002ZM10.75 4.50002L10.7496 4.60002H10.75V4.50002ZM9.206 4.83152L9.11489 4.87272L9.15617 4.96401L9.24737 4.92256L9.206 4.83152ZM8.794 3.92052L8.75266 3.82946L8.66174 3.87075L8.70288 3.96172L8.794 3.92052ZM10.75 3.50002L10.7497 3.60002H10.75V3.50002ZM8.707 5.79252L8.77771 5.72181L8.77762 5.72171L8.707 5.79252ZM7.293 5.79302L7.36371 5.86373L7.3638 5.86363L7.293 5.79302ZM7.293 10.207L7.3638 10.1364L7.36371 10.1363L7.293 10.207ZM8.707 10.207L8.63629 10.1363L8.6362 10.1364L8.707 10.207ZM8 9.50002L7.92929 9.57073L8 9.64144L8.07071 9.57073L8 9.50002ZM6.5 8.00002L6.42929 7.92931L6.35858 8.00002L6.42929 8.07073L6.5 8.00002ZM8 6.50002L8.07071 6.42931L8 6.3586L7.92929 6.42931L8 6.50002ZM9.5 8.00002L9.57071 8.07073L9.64142 8.00002L9.57071 7.92931L9.5 8.00002ZM15.3205 9.54752L15.3478 9.4513L14.3858 9.1788L14.3585 9.27502L14.3312 9.37123L15.2932 9.64373L15.3205 9.54752ZM14.3585 9.27502L14.4547 9.30223C14.5515 8.95985 14.6004 8.6057 14.6 8.2499L14.5 8.25002L14.4 8.25014C14.4004 8.58746 14.3541 8.92321 14.2623 9.24781L14.3585 9.27502ZM14.5 8.25002H14.6C14.6 6.1273 12.8732 4.40002 10.75 4.40002V4.50002V4.60002C12.7628 4.60002 14.4 6.23774 14.4 8.25002H14.5ZM10.75 4.50002L10.7504 4.40002C10.2034 4.39807 9.66254 4.5142 9.16463 4.74048L9.206 4.83152L9.24737 4.92256C9.71908 4.70819 10.2315 4.59817 10.7496 4.60002L10.75 4.50002ZM9.206 4.83152L9.29712 4.79031L8.88511 3.87931L8.794 3.92052L8.70288 3.96172L9.11489 4.87272L9.206 4.83152ZM8.794 3.92052L8.83534 4.01157C9.43654 3.73858 10.0895 3.59822 10.7497 3.60002L10.75 3.50002L10.7503 3.40002C10.0613 3.39814 9.37999 3.54461 8.75266 3.82946L8.794 3.92052ZM10.75 3.50002V3.60002C13.3138 3.60002 15.4 5.68625 15.4 8.25002H15.5H15.6C15.6 5.57579 13.4242 3.40002 10.75 3.40002V3.50002ZM15.5 8.25002H15.4C15.4 8.68094 15.3412 9.10873 15.2243 9.52018L15.3205 9.54752L15.4167 9.57485C15.5388 9.1453 15.6 8.6991 15.6 8.25002H15.5ZM10.207 7.29252L10.2777 7.22181L8.77771 5.72181L8.707 5.79252L8.63629 5.86323L10.1363 7.36323L10.207 7.29252ZM8.707 5.79252L8.77762 5.72171C8.57044 5.51508 8.29357 5.40002 8 5.40002V5.50002V5.60002C8.24043 5.60002 8.46656 5.69395 8.63638 5.86332L8.707 5.79252ZM8 5.50002V5.40002C7.70653 5.40002 7.42953 5.51452 7.2222 5.7224L7.293 5.79302L7.3638 5.86363C7.53347 5.69352 7.75947 5.60002 8 5.60002V5.50002ZM7.293 5.79302L7.22229 5.72231L5.72229 7.22231L5.793 7.29302L5.86371 7.36373L7.36371 5.86373L7.293 5.79302ZM5.793 7.29302L5.72229 7.22231C5.50783 7.43677 5.4 7.71852 5.4 8.00002H5.5H5.6C5.6 7.76952 5.68817 7.53927 5.86371 7.36373L5.793 7.29302ZM5.5 8.00002H5.4C5.4 8.28152 5.50783 8.56326 5.72229 8.77773L5.793 8.70702L5.86371 8.63631C5.68817 8.46077 5.6 8.23052 5.6 8.00002H5.5ZM5.793 8.70702L5.72229 8.77773L7.22229 10.2777L7.293 10.207L7.36371 10.1363L5.86371 8.63631L5.793 8.70702ZM7.293 10.207L7.2222 10.2776C7.42953 10.4855 7.70653 10.6 8 10.6V10.5V10.4C7.75947 10.4 7.53347 10.3065 7.3638 10.1364L7.293 10.207ZM8 10.5V10.6C8.29347 10.6 8.57047 10.4855 8.7778 10.2776L8.707 10.207L8.6362 10.1364C8.46653 10.3065 8.24053 10.4 8 10.4V10.5ZM8.707 10.207L8.77771 10.2777L10.2777 8.77773L10.207 8.70702L10.1363 8.63631L8.63629 10.1363L8.707 10.207ZM10.207 8.70702L10.2777 8.77773C10.4922 8.56326 10.6 8.28152 10.6 8.00002H10.5H10.4C10.4 8.23052 10.3118 8.46077 10.1363 8.63631L10.207 8.70702ZM10.5 8.00002H10.6C10.6 7.71852 10.4922 7.43677 10.2777 7.22231L10.207 7.29302L10.1363 7.36373C10.3118 7.53927 10.4 7.76952 10.4 8.00002H10.5ZM8 9.50002L8.07071 9.42931L6.57071 7.92931L6.5 8.00002L6.42929 8.07073L7.92929 9.57073L8 9.50002ZM6.5 8.00002L6.57071 8.07073L8.07071 6.57073L8 6.50002L7.92929 6.42931L6.42929 7.92931L6.5 8.00002ZM8 6.50002L7.92929 6.57073L9.42929 8.07073L9.5 8.00002L9.57071 7.92931L8.07071 6.42931L8 6.50002ZM9.5 8.00002L9.42929 7.92931L7.92929 9.42931L8 9.50002L8.07071 9.57073L9.57071 8.07073L9.5 8.00002Z" fill="#4E657F" mask="url(#path-4-outside-1_21_608)"/>
<path d="M8 0.450195C8.5799 0.450195 9.0498 0.920101 9.0498 1.5C9.0498 2.0799 8.5799 2.5498 8 2.5498C7.4201 2.5498 6.9502 2.0799 6.9502 1.5C6.9502 0.920101 7.4201 0.450195 8 0.450195Z" fill="#4E657F" stroke="#4E657F" stroke-width="0.1"/>
<path d="M6.02051 1.00513L6.0791 2.00317L6.08203 2.05396L6.03223 2.05688C5.22757 2.10493 4.46036 2.41395 3.84766 2.93774C3.2349 3.46168 2.81017 4.17169 2.6377 4.95923C2.46523 5.74672 2.55397 6.56898 2.8916 7.30103C3.22925 8.03303 3.79689 8.63487 4.50781 9.01489L4.55176 9.03833L4.52832 9.08228L4.05664 9.96509L4.0332 10.009L3.98926 9.9856C3.22188 9.57643 2.58005 8.96579 2.13281 8.21997C1.6856 7.47399 1.4495 6.62 1.4502 5.75024C1.4502 3.21041 3.43445 1.10546 5.96777 0.958252L6.01758 0.955322L6.02051 1.00513Z" fill="#4E657F" stroke="#4E657F" stroke-width="0.1"/>
</g>
<defs>
<clipPath id="clip0_21_608">
<rect width="16" height="16" fill="white"/>
</clipPath>
</defs>
</svg>
