<svg width="16" height="16" viewBox="0 0 16 16" fill="none" xmlns="http://www.w3.org/2000/svg">
<path d="M2.96042 10.04C3.14792 10.2272 3.40209 10.3324 3.66709 10.3324C3.93209 10.3324 4.18625 10.2272 4.37376 10.04L8.00042 6.41331L11.6271 10.04C11.8167 10.2166 12.0674 10.3128 12.3265 10.3082C12.5855 10.3036 12.8327 10.1987 13.0159 10.0155C13.1991 9.83225 13.3041 9.58507 13.3087 9.326C13.3132 9.06694 13.2171 8.81621 13.0404 8.62664L8.70709 4.29331C8.51959 4.10604 8.26542 4.00085 8.00042 4.00085C7.73542 4.00085 7.48126 4.10604 7.29376 4.29331L2.96042 8.62664C2.77315 8.81414 2.66797 9.06831 2.66797 9.33331C2.66797 9.59831 2.77315 9.85247 2.96042 10.04Z" fill="#4E657F"/>
</svg>
