<svg width="16" height="16" viewBox="0 0 16 16" fill="none" xmlns="http://www.w3.org/2000/svg">
<g clip-path="url(#clip0_21_633)">
<path fill-rule="evenodd" clip-rule="evenodd" d="M6.79349 3.87071C6.85469 3.75747 6.94565 3.66309 7.05656 3.59777C7.16747 3.53244 7.29411 3.49865 7.42283 3.50004L8.82283 3.52137C8.95118 3.52419 9.07635 3.56192 9.18488 3.63052C9.29341 3.69911 9.3812 3.79598 9.43883 3.91071L9.99883 5.03604L10.9882 4.95204C11.1148 4.94198 11.2419 4.96627 11.3559 5.02236C11.47 5.07844 11.5668 5.16423 11.6362 5.27071L12.3428 6.36671C12.4187 6.48473 12.4574 6.62284 12.4538 6.76312C12.4503 6.90339 12.4046 7.03936 12.3228 7.15337L11.8028 7.88137L12.3562 8.61204C12.5282 8.83871 12.5455 9.14804 12.3988 9.39337L11.7322 10.5107C11.6659 10.6203 11.5711 10.7098 11.4579 10.7697C11.3447 10.8296 11.2174 10.8576 11.0895 10.8507L10.0428 10.7867L9.39883 12.1054C9.34053 12.2226 9.25082 12.3213 9.1397 12.3905C9.02857 12.4598 8.90041 12.4967 8.76949 12.4974H7.32683C7.19614 12.4965 7.06825 12.4594 6.95739 12.3902C6.84652 12.321 6.75702 12.2224 6.69883 12.1054L6.09349 10.8667L4.97349 10.968C4.84439 10.9789 4.71478 10.954 4.59885 10.8962C4.48292 10.8383 4.38513 10.7497 4.31616 10.64L3.60816 9.50004C3.53307 9.37904 3.49667 9.23802 3.50381 9.09579C3.51096 8.95357 3.56132 8.8169 3.64816 8.70404L4.28816 7.87071L3.77349 7.15204C3.6919 7.03789 3.64649 6.90185 3.64316 6.76158C3.63983 6.6213 3.67874 6.48327 3.75483 6.36537L4.46149 5.26937C4.53076 5.16311 4.62735 5.07745 4.74113 5.02138C4.85492 4.96531 4.98169 4.9409 5.10816 4.95071L6.17083 5.04137L6.79349 3.87071ZM7.59083 4.50271L6.96149 5.68671C6.89653 5.80729 6.79792 5.90639 6.67767 5.97196C6.55742 6.03753 6.42071 6.06674 6.28416 6.05604L5.20416 5.96404L4.70549 6.73737L5.23083 7.47071C5.31822 7.59269 5.3641 7.73953 5.3617 7.88958C5.3593 8.03962 5.30874 8.18491 5.21749 8.30404L4.56683 9.14937L5.06816 9.95737L6.20949 9.85337C6.35091 9.84027 6.49297 9.8705 6.61681 9.94004C6.74064 10.0096 6.8404 10.1151 6.90283 10.2427L7.51483 11.4974H8.58149L9.23216 10.168C9.29363 10.0446 9.38988 9.94181 9.50906 9.87239C9.62823 9.80297 9.76511 9.76994 9.90283 9.77737L10.9668 9.84137L11.4362 9.05471L10.8708 8.30804C10.7809 8.18899 10.7314 8.04431 10.7294 7.89512C10.7275 7.74593 10.7733 7.60004 10.8602 7.47871L11.3922 6.73737L10.8935 5.96404L9.88016 6.04937C9.74011 6.06131 9.59972 6.03081 9.47724 5.96185C9.35477 5.89288 9.2559 5.78865 9.19349 5.66271L8.62416 4.51871L7.59083 4.50271Z" fill="#4E657F"/>
<path d="M13.7097 9.86671C13.3052 11.1153 12.5025 12.1968 11.4245 12.9456C10.3466 13.6943 9.05287 14.0689 7.74162 14.012C6.43038 13.9551 5.17397 13.4699 4.16491 12.6306C3.15585 11.7913 2.44983 10.6443 2.15502 9.36537L3.28969 9.14137L1.12969 6.90671L-0.000976562 9.79604L1.19502 9.56137C1.5288 11.0627 2.34774 12.4123 3.52528 13.4017C4.70282 14.391 6.17341 14.965 7.7098 15.035C9.24619 15.1049 10.7629 14.6669 12.0254 13.7887C13.288 12.9104 14.2262 11.6408 14.695 10.176L13.7097 9.86671ZM14.8244 6.48004C14.4904 4.97877 13.6713 3.62927 12.4937 2.64006C11.3161 1.65086 9.84545 1.07702 8.30907 1.00722C6.77269 0.937415 5.25608 1.37554 3.99361 2.25388C2.73113 3.13223 1.79306 4.4019 1.32436 5.86671L2.27502 6.17604C2.67936 4.92742 3.48196 3.84582 4.55982 3.09699C5.63768 2.34815 6.93135 1.97339 8.24258 2.03013C9.55381 2.08687 10.8103 2.57198 11.8194 3.41113C12.8286 4.25028 13.5347 5.39716 13.8297 6.67604L12.695 6.90138L14.855 9.13071L15.999 6.24538L14.8244 6.48004Z" fill="#4E657F"/>
<path fill-rule="evenodd" clip-rule="evenodd" d="M8 7.5C7.86739 7.5 7.74022 7.55268 7.64645 7.64645C7.55268 7.74022 7.5 7.86739 7.5 8C7.5 8.13261 7.55268 8.25979 7.64645 8.35355C7.74022 8.44732 7.86739 8.5 8 8.5C8.13261 8.5 8.25979 8.44732 8.35355 8.35355C8.44732 8.25979 8.5 8.13261 8.5 8C8.5 7.86739 8.44732 7.74022 8.35355 7.64645C8.25979 7.55268 8.13261 7.5 8 7.5ZM6.5 8C6.5 7.60218 6.65804 7.22064 6.93934 6.93934C7.22064 6.65804 7.60218 6.5 8 6.5C8.39782 6.5 8.77936 6.65804 9.06066 6.93934C9.34196 7.22064 9.5 7.60218 9.5 8C9.5 8.39782 9.34196 8.77936 9.06066 9.06066C8.77936 9.34196 8.39782 9.5 8 9.5C7.60218 9.5 7.22064 9.34196 6.93934 9.06066C6.65804 8.77936 6.5 8.39782 6.5 8Z" fill="#4E657F"/>
</g>
<defs>
<clipPath id="clip0_21_633">
<rect width="16" height="16" fill="white"/>
</clipPath>
</defs>
</svg>
