<svg width="24" height="24" viewBox="0 0 24 24" fill="none" xmlns="http://www.w3.org/2000/svg">
<path d="M10.5496 21C5.82758 21 1.99961 16.9706 1.99961 12C1.99961 7.02944 5.82758 3 10.5496 3C15.2716 3 19.0996 7.02944 19.0996 12C19.0996 16.9706 15.2716 21 10.5496 21Z" stroke="#8E7F78" stroke-width="2" stroke-linecap="round" stroke-linejoin="round"/>
<path d="M12.8004 9.1199C12.2277 8.65522 11.5129 8.40107 10.7754 8.3999C8.91149 8.3999 7.40039 10.0109 7.40039 11.9999C7.40039 13.9889 8.91149 15.5999 10.7754 15.5999C11.535 15.5999 12.2361 15.3317 12.8004 14.8799" stroke="#8E7F78" stroke-width="2" stroke-linecap="round" stroke-linejoin="round"/>
<path d="M10.0996 3C13.9993 3 21.7996 3.9 21.7996 12C21.7996 20.1 13.9993 21 10.0996 21" stroke="#8E7F78" stroke-width="2"/>
</svg>
