<svg width="30" height="30" viewBox="0 0 30 30" fill="none" xmlns="http://www.w3.org/2000/svg">
<path fill-rule="evenodd" clip-rule="evenodd" d="M20.4147 18.721C20.3262 18.8094 20.2212 18.8796 20.1057 18.9275C19.9901 18.9754 19.8663 19 19.7412 19C19.6161 19 19.4922 18.9754 19.3767 18.9275C19.2611 18.8796 19.1561 18.8094 19.0677 18.721L15.3467 15L19.0677 11.279C19.1561 11.1905 19.2611 11.1204 19.3767 11.0725C19.4922 11.0246 19.6161 11 19.7412 11C19.8663 11 19.9901 11.0246 20.1057 11.0725C20.2212 11.1204 20.3262 11.1905 20.4147 11.279C20.5031 11.3674 20.5733 11.4724 20.6211 11.588C20.669 11.7035 20.6937 11.8274 20.6937 11.9525C20.6937 12.0776 20.669 12.2014 20.6211 12.317C20.5733 12.4325 20.5031 12.5375 20.4147 12.626L18.0407 15L20.4147 17.374C20.5031 17.4624 20.5733 17.5674 20.6212 17.683C20.6691 17.7985 20.6937 17.9224 20.6937 18.0475C20.6937 18.1726 20.6691 18.2964 20.6212 18.412C20.5733 18.5275 20.5031 18.6325 20.4147 18.721Z" fill="#687D96"/>
<path fill-rule="evenodd" clip-rule="evenodd" d="M15.068 18.721C14.9796 18.8094 14.8746 18.8796 14.759 18.9275C14.6434 18.9754 14.5196 19 14.3945 19C14.2694 19 14.1456 18.9754 14.03 18.9275C13.9144 18.8796 13.8094 18.8094 13.721 18.721L10 15L13.721 11.279C13.8996 11.1003 14.1419 11 14.3945 11C14.6471 11 14.8894 11.1003 15.068 11.279C15.2466 11.4576 15.347 11.6999 15.347 11.9525C15.347 12.2051 15.2466 12.4473 15.068 12.626L12.694 15L15.068 17.374C15.1565 17.4624 15.2266 17.5674 15.2745 17.683C15.3224 17.7985 15.347 17.9224 15.347 18.0475C15.347 18.1726 15.3224 18.2964 15.2745 18.412C15.2266 18.5275 15.1565 18.6325 15.068 18.721Z" fill="#687D96"/>
</svg>
