<svg width="114" height="30" viewBox="0 0 114 30" fill="none" xmlns="http://www.w3.org/2000/svg">
<rect x="0.5" y="0.5" width="29" height="29" rx="7.5" fill="white"/>
<rect x="0.5" y="0.5" width="29" height="29" rx="7.5" stroke="#DBE2EB"/>
<path d="M15.6667 12.3333V15.6667L12.8333 17.3467L12.32 16.4933L14.6667 15.1V12.3333H15.6667ZM9 13.6667V9.00001L10.76 10.76C11.3153 10.2009 11.976 9.75749 12.7037 9.45539C13.4315 9.15329 14.212 8.99851 15 9.00001C16.1867 9.00001 17.3467 9.3519 18.3334 10.0112C19.3201 10.6705 20.0891 11.6076 20.5433 12.7039C20.9974 13.8003 21.1162 15.0067 20.8847 16.1706C20.6532 17.3344 20.0818 18.4035 19.2426 19.2427C18.4035 20.0818 17.3344 20.6532 16.1705 20.8847C15.0067 21.1162 13.8003 20.9974 12.7039 20.5433C11.6075 20.0892 10.6705 19.3201 10.0112 18.3334C9.35189 17.3467 9 16.1867 9 15H10.3333C10.3333 17.5733 12.4267 19.6667 15 19.6667C17.5733 19.6667 19.6667 17.5733 19.6667 15C19.6667 12.4267 17.5733 10.3333 15 10.3333C13.7133 10.3333 12.5467 10.86 11.7 11.7L13.6667 13.6667H9Z" fill="#172A41"/>
<rect x="42.5" y="0.5" width="29" height="29" rx="7.5" fill="white"/>
<rect x="42.5" y="0.5" width="29" height="29" rx="7.5" stroke="#DBE2EB"/>
<path d="M54.3333 13.0001H59.6667M54.3333 15.6667H58.3333M61 9.66675C61.5304 9.66675 62.0391 9.87746 62.4142 10.2525C62.7893 10.6276 63 11.1363 63 11.6667V17.0001C63 17.5305 62.7893 18.0392 62.4142 18.4143C62.0391 18.7894 61.5304 19.0001 61 19.0001H57.6667L54.3333 21.0001V19.0001H53C52.4696 19.0001 51.9609 18.7894 51.5858 18.4143C51.2107 18.0392 51 17.5305 51 17.0001V11.6667C51 11.1363 51.2107 10.6276 51.5858 10.2525C51.9609 9.87746 52.4696 9.66675 53 9.66675H61Z" stroke="#172A41" stroke-width="1.2" stroke-linecap="round" stroke-linejoin="round"/>
<rect x="84.5" y="0.5" width="29" height="29" rx="7.5" fill="white"/>
<rect x="84.5" y="0.5" width="29" height="29" rx="7.5" stroke="#DBE2EB"/>
<path d="M101 18.3333V19C101 19.5304 100.79 20.0391 100.415 20.4142C100.039 20.7893 99.5308 21 99.0003 21C98.4699 21 97.9612 20.7893 97.5861 20.4142C97.211 20.0391 97.0003 19.5304 97.0003 19V18.3333M101 18.3333H97.0003M101 18.3333H103.667C103.844 18.3333 104.013 18.2631 104.138 18.1381C104.263 18.0131 104.334 17.8435 104.334 17.6667V17.276C104.334 17.0992 104.263 16.9297 104.138 16.8047L103.798 16.4647C103.757 16.4231 103.724 16.3738 103.701 16.3194C103.679 16.2651 103.667 16.2068 103.667 16.148V13.6667C103.667 13.5493 103.663 13.4329 103.654 13.3173M97.0003 18.3333H94.3337C94.1568 18.3333 93.9873 18.2631 93.8623 18.1381C93.7372 18.0131 93.667 17.8435 93.667 17.6667V17.276C93.667 17.0992 93.7373 16.9297 93.8623 16.8047L94.2023 16.464C94.2439 16.4226 94.2769 16.3733 94.2995 16.3191C94.322 16.2649 94.3336 16.2067 94.3337 16.148V13.6667C94.3335 12.9371 94.5044 12.2177 94.8327 11.5662C95.1609 10.9146 95.6373 10.3491 96.2237 9.91503C96.81 9.48095 97.49 9.19039 98.209 9.06667C98.928 8.94296 99.6659 8.98954 100.364 9.20267M103.654 13.3173C103.988 13.1264 104.277 12.8653 104.501 12.5519C104.725 12.2385 104.879 11.8804 104.951 11.502C105.023 11.1237 105.013 10.7342 104.92 10.3603C104.828 9.98646 104.655 9.63708 104.415 9.33623C104.174 9.03538 103.871 8.7902 103.527 8.61757C103.183 8.44493 102.805 8.34893 102.42 8.33618C102.035 8.32342 101.652 8.39421 101.297 8.54368C100.942 8.69314 100.624 8.9184 100.364 9.20267M103.654 13.3173C103.102 13.6324 102.455 13.74 101.831 13.6206C101.207 13.5013 100.646 13.163 100.249 12.6665C99.852 12.1701 99.6455 11.5483 99.6665 10.9131C99.6876 10.2779 99.9348 9.67173 100.364 9.20267M100.364 9.20267H100.365" stroke="#172A41" stroke-linecap="round" stroke-linejoin="round"/>
</svg>
