<svg width="20" height="20" viewBox="0 0 20 20" fill="none" xmlns="http://www.w3.org/2000/svg">
<path d="M4.16634 9.99996H4.17467M9.99967 9.99996H10.008M15.833 9.99996H15.8413M4.99967 9.99996C4.99967 10.4602 4.62658 10.8333 4.16634 10.8333C3.7061 10.8333 3.33301 10.4602 3.33301 9.99996C3.33301 9.53972 3.7061 9.16663 4.16634 9.16663C4.62658 9.16663 4.99967 9.53972 4.99967 9.99996ZM10.833 9.99996C10.833 10.4602 10.4599 10.8333 9.99967 10.8333C9.53944 10.8333 9.16634 10.4602 9.16634 9.99996C9.16634 9.53972 9.53944 9.16663 9.99967 9.16663C10.4599 9.16663 10.833 9.53972 10.833 9.99996ZM16.6663 9.99996C16.6663 10.4602 16.2932 10.8333 15.833 10.8333C15.3728 10.8333 14.9997 10.4602 14.9997 9.99996C14.9997 9.53972 15.3728 9.16663 15.833 9.16663C16.2932 9.16663 16.6663 9.53972 16.6663 9.99996Z" stroke="#4E657F" stroke-width="2" stroke-linecap="round" stroke-linejoin="round"/>
</svg>
