<svg width="16" height="16" viewBox="0 0 16 16" fill="none" xmlns="http://www.w3.org/2000/svg">
<g clip-path="url(#clip0_12_1323)">
<path d="M7.99968 14.6667C8.87532 14.6678 9.74254 14.4958 10.5515 14.1607C11.3605 13.8256 12.0953 13.334 12.7137 12.714C13.3336 12.0957 13.8253 11.3609 14.1604 10.5519C14.4955 9.7429 14.6674 8.87568 14.6663 8.00005C14.6674 7.12441 14.4955 6.25719 14.1604 5.44821C13.8253 4.63923 13.3336 3.90444 12.7137 3.28605C12.0953 2.6661 11.3605 2.17445 10.5515 1.83935C9.74254 1.50425 8.87532 1.3323 7.99968 1.33338C7.12404 1.3323 6.25682 1.50425 5.44784 1.83935C4.63886 2.17445 3.90407 2.6661 3.28568 3.28605C2.66573 3.90444 2.17409 4.63923 1.83898 5.44821C1.50388 6.25719 1.33193 7.12441 1.33301 8.00005C1.33193 8.87568 1.50388 9.7429 1.83898 10.5519C2.17409 11.3609 2.66573 12.0957 3.28568 12.714C3.90407 13.334 4.63886 13.8256 5.44784 14.1607C6.25682 14.4958 7.12404 14.6678 7.99968 14.6667Z" stroke="#4E657F" stroke-width="2" stroke-linejoin="round"/>
<path d="M8 9.54171V8.20837C8.39556 8.20837 8.78224 8.09108 9.11114 7.87131C9.44004 7.65155 9.69638 7.33919 9.84776 6.97374C9.99913 6.60829 10.0387 6.20616 9.96157 5.81819C9.8844 5.43023 9.69392 5.07387 9.41421 4.79416C9.13451 4.51446 8.77814 4.32397 8.39018 4.2468C8.00222 4.16963 7.60009 4.20924 7.23463 4.36062C6.86918 4.51199 6.55682 4.76834 6.33706 5.09723C6.1173 5.42613 6 5.81281 6 6.20837" stroke="#4E657F" stroke-width="2" stroke-linecap="round" stroke-linejoin="round"/>
<path fill-rule="evenodd" clip-rule="evenodd" d="M7.99935 12.5417C8.22036 12.5417 8.43232 12.4539 8.5886 12.2976C8.74488 12.1413 8.83268 11.9293 8.83268 11.7083C8.83268 11.4873 8.74488 11.2754 8.5886 11.1191C8.43232 10.9628 8.22036 10.875 7.99935 10.875C7.77834 10.875 7.56637 10.9628 7.41009 11.1191C7.25381 11.2754 7.16602 11.4873 7.16602 11.7083C7.16602 11.9293 7.25381 12.1413 7.41009 12.2976C7.56637 12.4539 7.77834 12.5417 7.99935 12.5417Z" fill="#4E657F"/>
</g>
<defs>
<clipPath id="clip0_12_1323">
<rect width="16" height="16" fill="white"/>
</clipPath>
</defs>
</svg>
