<svg width="16" height="16" viewBox="0 0 16 16" fill="none" xmlns="http://www.w3.org/2000/svg">
<g clip-path="url(#clip0_12_1317)">
<path d="M13.2583 8.35396L14.1623 9.15896C14.3292 9.29827 14.4408 9.49274 14.4767 9.70718C14.5127 9.92161 14.4707 10.1418 14.3583 10.328L13.2683 12.19C13.1837 12.3325 13.063 12.4501 12.9183 12.531C12.7719 12.612 12.6076 12.6549 12.4403 12.656C12.3365 12.6566 12.2333 12.6411 12.1343 12.61L10.9773 12.228C10.7746 12.358 10.564 12.4743 10.3453 12.577L10.1023 13.75C10.0573 13.9657 9.93719 14.1585 9.7633 14.294C9.5872 14.4318 9.36889 14.5046 9.1453 14.5H6.8883C6.66471 14.5046 6.44639 14.4318 6.2703 14.294C6.09678 14.1584 5.977 13.9656 5.9323 13.75L5.6883 12.577C5.4725 12.4729 5.26312 12.356 5.0613 12.227L3.9003 12.61C3.8013 12.6411 3.69807 12.6566 3.5943 12.656C3.42736 12.6548 3.26337 12.6118 3.1173 12.531C2.97274 12.4504 2.852 12.3331 2.7673 12.191L1.6383 10.328C1.52093 10.1401 1.47608 9.91597 1.51216 9.69745C1.54824 9.47894 1.66278 9.28108 1.8343 9.14096L2.7373 7.99996V7.64596L1.8333 6.84096C1.66636 6.70166 1.55482 6.50718 1.51887 6.29275C1.48291 6.07832 1.52493 5.8581 1.6373 5.67196L2.7663 3.80996C2.85086 3.66743 2.97161 3.54979 3.1163 3.46896C3.26237 3.38813 3.42636 3.34516 3.5933 3.34396C3.69613 3.33748 3.79935 3.34692 3.8993 3.37196L5.0373 3.77196C5.24063 3.64196 5.4513 3.52563 5.6693 3.42296L5.9133 2.24996C5.958 2.03433 6.07778 1.84156 6.2513 1.70596C6.42739 1.56811 6.64571 1.49534 6.8693 1.49996H9.1073C9.33089 1.49534 9.5492 1.56811 9.7253 1.70596C9.9003 1.84296 10.0203 2.03596 10.0633 2.24996L10.3073 3.42296C10.524 3.5263 10.733 3.64296 10.9343 3.77296L12.0963 3.39096C12.2253 3.34901 12.3615 3.33428 12.4965 3.34771C12.6314 3.36113 12.7621 3.40242 12.8803 3.46896C13.0253 3.55096 13.1453 3.66896 13.2303 3.80896L14.3583 5.67196C14.4772 5.85819 14.5244 6.08133 14.4909 6.29975C14.4574 6.51816 14.3456 6.71694 14.1763 6.85896L13.2583 7.64096V8.35396Z" stroke="#4E657F" stroke-width="1.5"/>
<path d="M10.5 8C10.5 8.66304 10.2366 9.29893 9.76777 9.76777C9.29893 10.2366 8.66304 10.5 8 10.5C7.33696 10.5 6.70107 10.2366 6.23223 9.76777C5.76339 9.29893 5.5 8.66304 5.5 8C5.5 7.33696 5.76339 6.70107 6.23223 6.23223C6.70107 5.76339 7.33696 5.5 8 5.5C8.66304 5.5 9.29893 5.76339 9.76777 6.23223C10.2366 6.70107 10.5 7.33696 10.5 8Z" stroke="#4E657F" stroke-width="1.5"/>
</g>
<defs>
<clipPath id="clip0_12_1317">
<rect width="16" height="16" fill="white"/>
</clipPath>
</defs>
</svg>
