<svg width="20" height="20" viewBox="0 0 20 20" fill="none" xmlns="http://www.w3.org/2000/svg">
<path d="M13.158 15.333V10.5611C13.158 10.4029 13.0952 10.2512 12.9833 10.1393C12.8715 10.0274 12.7198 9.9646 12.5616 9.9646H10.1756C10.0174 9.9646 9.86567 10.0274 9.75381 10.1393C9.64195 10.2512 9.5791 10.4029 9.5791 10.5611V15.333" stroke="#172A41" stroke-width="1.5" stroke-linecap="round" stroke-linejoin="round"/>
<path d="M5 8.77161C4.99996 8.59807 5.03778 8.42662 5.11082 8.2692C5.18386 8.11178 5.29037 7.97219 5.42291 7.86018L9.59834 4.28183C9.81367 4.09985 10.0865 4 10.3684 4C10.6503 4 10.9232 4.09985 11.1385 4.28183L15.3139 7.86018C15.4465 7.97219 15.553 8.11178 15.626 8.2692C15.6991 8.42662 15.7369 8.59807 15.7368 8.77161V14.14C15.7368 14.4564 15.6111 14.7599 15.3874 14.9836C15.1637 15.2073 14.8602 15.333 14.5438 15.333H6.19298C5.87658 15.333 5.57314 15.2073 5.34942 14.9836C5.12569 14.7599 5 14.4564 5 14.14V8.77161Z" stroke="#172A41" stroke-width="1.5" stroke-linecap="round" stroke-linejoin="round"/>
</svg>
